<?xml version="1.0" standalone="no"?>
<!DOCTYPE svg PUBLIC "-//W3C//DTD SVG 20010904//EN"
 "http://www.w3.org/TR/2001/REC-SVG-20010904/DTD/svg10.dtd">
<svg version="1.0" xmlns="http://www.w3.org/2000/svg"
 width="928.000000pt" height="928.000000pt" viewBox="0 0 928.000000 928.000000"
 preserveAspectRatio="xMidYMid meet">
<metadata>
Created by potrace 1.14, written by Peter Selinger 2001-2017
</metadata>
<g transform="translate(0.000000,928.000000) scale(0.100000,-0.100000)"
fill="#000000" stroke="none">
<path d="M4495 8989 c-77 -154 -145 -284 -150 -289 -6 -5 -31 -11 -55 -15 -25
-3 -63 -8 -85 -12 -22 -3 -51 -7 -65 -8 -14 -2 -25 -4 -25 -5 0 0 -20 -3 -44
-6 -25 -2 -56 -7 -70 -9 -14 -3 -46 -8 -71 -10 -25 -3 -56 -8 -70 -11 -14 -3
-45 -7 -70 -10 -41 -5 -75 -10 -92 -13 -6 -1 76 -83 237 -236 155 -147 234
-228 230 -235 -4 -7 -10 -35 -20 -110 -4 -24 -8 -47 -10 -50 -1 -3 -6 -25 -9
-50 -3 -25 -8 -56 -11 -70 -6 -30 -14 -74 -21 -115 -2 -16 -9 -55 -14 -85 -6
-30 -13 -68 -15 -85 -3 -16 -8 -36 -10 -42 -5 -15 26 -18 40 -4 6 5 105 57
220 116 116 59 217 113 225 119 40 29 -41 -54 -407 -421 -353 -353 -395 -392
-415 -384 -20 7 -46 8 -81 2 -4 0 -15 -16 -24 -35 -12 -27 -13 -40 -5 -65 l11
-32 -285 -286 c-210 -209 -283 -288 -273 -294 8 -5 15 -5 17 0 2 5 17 6 35 2
18 -4 48 -4 67 -1 19 3 47 3 62 -1 15 -4 30 -4 33 1 3 4 20 5 37 1 18 -4 44
-5 58 -4 14 2 35 3 48 3 12 0 30 0 40 0 102 1 135 0 139 -4 3 -3 15 -1 27 4
13 4 29 4 36 0 8 -5 21 -5 29 -1 9 5 25 5 36 1 11 -4 31 -4 45 0 28 7 60 2 60
-9 0 -5 -11 -20 -25 -35 -14 -15 -25 -29 -25 -32 0 -3 -6 -12 -12 -19 -16 -17
-25 -29 -63 -80 -16 -22 -34 -45 -40 -52 -14 -17 -19 -23 -110 -143 -44 -58
-115 -150 -157 -205 -43 -55 -87 -111 -97 -125 -37 -49 -372 -485 -384 -500
-7 -8 -28 -35 -47 -60 -19 -25 -38 -46 -42 -48 -5 -2 -8 -8 -8 -13 0 -5 -9
-20 -21 -33 -18 -21 -25 -23 -50 -14 -42 14 -76 2 -94 -33 -17 -31 -13 -89 6
-89 18 0 9 -36 -16 -62 -14 -15 -25 -31 -25 -37 0 -5 -3 -11 -7 -13 -5 -1 -21
-21 -38 -43 -16 -22 -35 -47 -42 -55 -44 -53 -283 -366 -283 -371 0 -4 13 -9
30 -11 17 -3 30 -1 30 2 0 4 18 4 39 0 22 -4 45 -4 52 1 7 4 18 5 24 2 19 -7
115 -9 115 -2 0 3 20 3 45 -1 25 -4 48 -3 51 2 3 4 9 6 14 3 12 -8 128 -10
135 -3 3 3 23 2 45 -2 21 -4 44 -4 51 1 7 4 18 5 24 2 19 -7 115 -9 115 -2 0
3 20 3 45 -1 25 -4 48 -3 51 1 2 5 10 6 17 3 19 -7 127 -10 127 -3 0 3 20 3
45 -1 25 -4 48 -4 50 0 3 5 21 4 40 0 19 -4 37 -4 40 0 3 5 18 5 34 0 16 -4
32 -6 35 -2 17 17 2 -19 -18 -44 -13 -16 -74 -94 -135 -174 -61 -80 -116 -152
-123 -160 -7 -8 -35 -44 -63 -80 -27 -36 -93 -122 -145 -189 -52 -68 -104
-136 -115 -150 -46 -61 -297 -387 -308 -401 -7 -9 -29 -36 -49 -62 -21 -25
-38 -51 -38 -56 0 -6 -4 -12 -8 -14 -8 -3 -110 -133 -285 -362 -28 -37 -56
-73 -62 -80 -5 -6 -30 -38 -54 -71 -25 -33 -48 -61 -53 -63 -4 -2 -8 -8 -8
-13 0 -5 -8 -17 -17 -27 -10 -11 -27 -32 -38 -47 -11 -16 -26 -34 -32 -41 -7
-7 -13 -17 -13 -22 0 -6 -6 -13 -12 -16 -7 -3 -1 -5 14 -3 15 2 32 0 39 -4 7
-4 20 -4 28 0 9 5 25 5 36 1 11 -4 32 -4 47 1 15 4 30 4 33 -1 3 -6 16 -5 29
0 13 5 26 6 29 4 3 -3 27 -5 54 -5 26 1 57 1 68 0 11 0 26 0 33 0 90 3 121 3
129 -2 5 -3 15 -2 22 3 8 4 27 4 42 0 16 -5 31 -5 34 0 3 5 15 6 29 0 12 -4
29 -4 36 0 8 5 18 6 23 3 5 -3 32 -5 60 -4 29 1 61 1 72 1 11 -1 27 -1 35 -1
83 3 141 1 150 -4 5 -3 10 -2 10 3 0 6 14 7 35 2 19 -4 35 -5 35 -1 0 3 18 6
40 6 22 0 40 -3 40 -6 0 -3 21 -3 48 1 26 3 59 3 72 0 14 -4 37 -3 51 1 14 3
32 3 40 -2 8 -4 21 -4 29 1 7 4 23 5 35 0 12 -5 28 -5 35 0 7 5 23 5 34 1 12
-4 32 -5 46 -1 14 4 36 4 50 0 14 -4 36 -4 50 0 14 4 32 3 41 -1 8 -4 21 -4
29 1 7 4 23 5 35 0 12 -5 28 -5 35 0 7 5 23 5 34 1 12 -4 37 -4 56 -1 19 3 47
3 63 -1 15 -4 27 -4 27 1 0 4 16 4 35 0 19 -4 35 -5 35 -1 0 3 18 6 40 6 22 0
40 -2 40 -5 0 -7 110 -4 116 3 3 3 19 1 35 -3 16 -5 31 -5 34 0 3 4 13 6 24 3
19 -5 22 -19 21 -98 -1 -8 -1 -30 0 -47 0 -18 -1 -54 -2 -80 -1 -27 1 -50 4
-54 3 -3 2 -21 -2 -40 -4 -19 -4 -36 0 -39 5 -3 5 -18 1 -33 -4 -15 -5 -38 -1
-52 3 -14 5 -34 4 -45 -2 -20 -4 -58 -4 -98 0 -12 -2 -31 -4 -42 -1 -11 0 -34
5 -52 4 -18 3 -35 -1 -38 -5 -3 -5 -18 0 -35 6 -19 4 -32 -3 -38 -15 -12 -77
-21 -77 -12 0 4 -18 4 -40 0 -22 -4 -58 -4 -79 0 -22 4 -45 4 -52 0 -6 -4 -24
-4 -39 0 -15 4 -33 4 -39 0 -7 -4 -30 -4 -51 0 -21 4 -44 4 -50 0 -7 -4 -21
-5 -32 -2 -17 4 -19 1 -14 -34 3 -22 8 -64 12 -94 3 -30 8 -63 9 -72 2 -9 6
-41 9 -70 4 -29 9 -71 11 -93 5 -37 8 -56 20 -155 2 -19 6 -51 9 -70 2 -19 7
-60 11 -90 3 -30 8 -66 10 -80 2 -14 6 -47 10 -75 3 -27 8 -66 10 -85 3 -19 7
-59 10 -88 4 -29 8 -62 10 -73 2 -11 7 -48 10 -82 3 -35 8 -71 10 -82 2 -11 4
-23 4 -27 1 -5 289 -8 641 -8 505 0 640 3 641 13 0 6 2 19 3 27 3 15 11 73 21
155 14 113 16 132 20 155 2 14 7 52 10 85 10 94 24 204 30 245 3 14 7 45 9 70
3 25 8 65 11 90 7 50 12 92 19 161 3 25 7 59 10 76 5 26 12 82 21 175 3 31 2
31 -145 28 -36 -1 -72 -1 -80 -1 -35 1 -162 0 -168 0 -4 -1 -24 -1 -44 0 -36
1 -38 2 -35 33 2 18 0 48 -4 66 -4 17 -4 32 0 32 7 0 7 58 -1 66 -4 3 -3 18 1
32 4 15 5 38 1 52 -3 14 -5 34 -4 45 1 11 3 32 3 47 1 16 1 40 2 55 0 16 1 37
3 48 1 11 -1 37 -5 58 -3 20 -3 37 1 37 4 0 4 15 0 34 -4 19 -4 40 0 47 5 7 5
22 0 33 -4 12 -4 30 0 41 4 11 4 32 -1 47 -5 19 -3 28 7 32 8 3 14 1 14 -3 0
-5 15 -6 33 -2 17 4 43 5 57 1 14 -3 41 -3 60 0 19 4 47 3 63 -1 15 -4 27 -4
27 1 0 4 16 4 35 0 19 -4 35 -5 35 -1 0 3 18 6 40 6 22 0 40 -2 40 -5 0 -3 26
-4 57 -2 32 2 67 3 78 2 11 -1 26 -1 33 -1 90 3 121 3 129 -2 5 -3 15 -2 22 3
8 4 27 4 42 0 16 -5 31 -5 34 0 3 5 15 6 29 0 12 -4 29 -4 36 0 8 5 18 6 23 3
5 -3 32 -5 60 -4 29 1 61 1 72 1 11 -1 27 -1 35 -1 83 3 141 1 150 -4 5 -3 10
-2 10 3 0 6 14 7 35 2 19 -4 35 -5 35 -1 0 3 18 6 40 6 22 0 40 -3 40 -6 0 -3
21 -3 48 1 26 3 59 3 72 0 14 -4 37 -3 51 1 14 3 32 3 40 -2 8 -4 21 -4 29 1
7 4 23 5 35 0 12 -5 28 -5 35 0 7 5 23 5 34 1 12 -4 32 -5 46 -1 14 4 36 4 50
0 14 -4 36 -4 50 0 14 4 32 3 41 -1 8 -4 21 -4 29 1 7 4 23 5 35 0 12 -5 28
-5 35 0 7 5 23 5 34 1 12 -4 37 -4 56 -1 19 3 47 3 63 -1 15 -4 27 -4 27 1 0
4 15 5 33 1 17 -4 46 -4 62 -1 17 4 37 4 45 0 8 -3 29 -4 46 -1 l31 6 -89 115
c-49 63 -94 122 -101 130 -7 8 -23 31 -37 50 -14 19 -32 44 -42 55 -20 24
-297 384 -395 514 -24 31 -49 63 -56 71 -7 8 -27 33 -43 55 -15 22 -55 72 -86
112 -32 39 -58 76 -58 81 0 6 -4 12 -8 14 -6 3 -47 52 -121 147 -15 19 -17 30
-9 61 18 69 -37 126 -101 105 -11 -3 -21 0 -24 7 -2 7 -34 50 -71 95 -36 45
-66 86 -66 92 0 5 -4 11 -8 13 -5 1 -29 30 -55 63 -25 33 -84 110 -131 170
-47 61 -86 115 -86 121 0 7 15 9 43 4 24 -3 55 -3 69 1 14 4 31 3 38 -1 6 -4
29 -4 51 0 21 4 39 5 39 1 0 -7 117 -4 137 3 7 3 15 1 18 -5 4 -5 10 -7 15 -4
5 3 30 5 57 5 68 0 225 0 243 1 8 0 63 -1 123 -2 59 -1 110 1 113 3 3 3 20 2
38 -2 19 -4 40 -4 46 0 7 4 25 4 40 0 15 -4 33 -4 40 0 7 5 23 5 34 1 12 -4
35 -4 51 -1 17 4 38 3 47 -2 9 -4 19 -5 21 -1 4 7 -141 203 -186 253 -7 8 -24
31 -37 50 -13 19 -27 37 -30 40 -7 7 -136 173 -174 225 -16 22 -40 51 -53 65
-13 14 -23 29 -23 33 0 5 -6 14 -12 21 -7 7 -24 27 -38 45 -14 18 -42 54 -62
81 -37 46 -37 49 -23 76 20 39 19 54 -8 87 -25 31 -57 40 -93 26 -22 -8 -27
-6 -31 11 -3 11 -9 20 -13 20 -3 0 -23 24 -43 53 -20 29 -44 61 -54 72 -10 11
-46 56 -79 101 -34 45 -69 90 -77 100 -34 40 -253 326 -262 342 -5 9 -16 22
-23 30 -7 8 -25 30 -40 50 -15 21 -31 42 -37 48 -5 6 -30 39 -55 73 -25 34
-60 78 -77 99 -18 20 -33 42 -33 48 0 7 -8 15 -17 18 -32 12 5 23 52 16 25 -4
47 -4 50 -1 7 6 91 5 103 -2 4 -3 14 -2 21 3 8 4 25 5 40 1 14 -4 40 -4 56 -1
17 3 42 3 58 -1 15 -4 27 -5 27 -1 0 4 16 7 35 7 19 0 35 -3 35 -6 0 -4 16 -3
35 1 19 4 37 4 40 0 2 -4 22 -4 42 -1 21 4 53 4 71 0 18 -3 34 -3 37 1 3 4 21
4 40 0 20 -5 35 -4 35 1 0 5 -128 138 -285 294 -260 260 -285 287 -274 306 13
25 4 82 -15 98 -19 16 -76 22 -97 10 -16 -8 -80 52 -424 396 -223 223 -399
405 -392 405 7 0 17 -4 23 -9 5 -5 82 -46 171 -92 89 -46 191 -99 225 -116 35
-18 64 -33 64 -33 1 0 -2 19 -6 43 -5 23 -11 56 -14 72 -2 17 -7 41 -10 55 -3
14 -8 45 -11 70 -3 25 -8 53 -11 64 -4 10 -8 30 -9 45 -3 26 -8 53 -25 146 -5
28 -12 67 -15 89 -3 21 -7 42 -10 46 -5 8 63 76 374 373 45 43 82 83 84 88 1
6 -7 13 -18 15 -29 5 -104 15 -150 20 -22 3 -51 7 -65 9 -14 3 -45 7 -70 11
-25 3 -56 7 -70 10 -24 4 -63 10 -140 20 -99 13 -115 16 -125 24 -5 5 -73 135
-150 289 -77 155 -142 281 -145 281 -3 0 -68 -126 -145 -281z"/>
</g>
</svg>
